<?xml version="1.0" encoding="UTF-8" standalone="no"?>
<!-- Created with Inkscape (http://www.inkscape.org/) -->

<svg
   width="33.866665mm"
   height="33.866669mm"
   viewBox="0 0 33.866665 33.866669"
   version="1.1"
   id="svg1"
   xml:space="preserve"
   xmlns="http://www.w3.org/2000/svg"
   xmlns:svg="http://www.w3.org/2000/svg"><defs
     id="defs1" /><g
     id="layer1"
     style="display:inline"
     transform="translate(-76.729163,-104.51043)"><rect
       x="2"
       y="2"
       width="124"
       height="124"
       rx="14"
       fill="#363d52"
       stroke="#212532"
       stroke-width="4"
       id="rect1"
       transform="matrix(0.26458333,0,0,0.26458333,76.729167,104.51042)" /><text
       xml:space="preserve"
       style="font-size:13.4056px;line-height:0.8;text-align:start;writing-mode:lr-tb;direction:ltr;text-anchor:start;fill:#478cbf;fill-opacity:1;stroke:#212532;stroke-width:1.165;stroke-linecap:round;stroke-linejoin:round;stroke-dasharray:none;stroke-opacity:1;paint-order:stroke fill markers"
       x="93.662498"
       y="120.56481"
       id="text10"><tspan
         id="tspan10"
         style="font-style:normal;font-variant:normal;font-weight:normal;font-stretch:normal;font-size:13.4056px;line-height:0.8;font-family:'Sour Gummy';-inkscape-font-specification:'Sour Gummy';text-align:center;text-anchor:middle;fill:#478cbf;fill-opacity:1;stroke:#212532;stroke-width:1.165;stroke-linecap:round;stroke-linejoin:round;stroke-dasharray:none;stroke-opacity:1;paint-order:stroke fill markers"
         x="93.662498"
         y="120.56481">MJ01</tspan><tspan
         style="font-style:normal;font-variant:normal;font-weight:normal;font-stretch:normal;font-size:13.4056px;line-height:0.8;font-family:'Sour Gummy';-inkscape-font-specification:'Sour Gummy';text-align:center;text-anchor:middle;fill:#478cbf;fill-opacity:1;stroke:#212532;stroke-width:1.165;stroke-linecap:round;stroke-linejoin:round;stroke-dasharray:none;stroke-opacity:1;paint-order:stroke fill markers"
         x="93.662498"
         y="131.50958"
         id="tspan11">IKDV</tspan></text></g><g
     id="g3"
     style="display:inline"
     transform="translate(-76.729163,-104.51043)"><rect
       x="2"
       y="2"
       width="124"
       height="124"
       rx="14"
       fill="#363d52"
       stroke="#212532"
       stroke-width="4"
       id="rect2"
       transform="matrix(0.26458333,0,0,0.26458333,76.729167,104.51042)" /><g
       id="text3"
       style="font-size:13.4056px;line-height:0.8;fill:#478cbf;stroke:#212532;stroke-width:1.165;stroke-linecap:round;stroke-linejoin:round;paint-order:stroke fill markers"
       aria-label="MJ02&#10;IKDV"><path
         style="font-family:'Sour Gummy';-inkscape-font-specification:'Sour Gummy';text-align:center;text-anchor:middle"
         d="m 79.982093,120.56481 q -0.201084,-0.0134 -0.33514,-0.0938 -0.134056,-0.0804 -0.214489,-0.18768 -0.06703,-0.12065 -0.09384,-0.20108 -0.02681,-0.0804 -0.02681,-0.0804 -0.08043,-0.72391 -0.12065,-1.60868 -0.02681,-0.88477 -0.02681,-1.83656 0,-0.9518 0.04022,-1.86338 0.04022,-0.92499 0.107245,-1.74273 0,0 0.01341,-0.067 0.0134,-0.067 0.06703,-0.16086 0.05362,-0.10725 0.160867,-0.17428 0.12065,-0.0804 0.294923,-0.0804 0.174273,-0.0134 0.361951,0.0402 0.201084,0.0536 0.348546,0.2547 0.388762,0.57644 0.723902,1.07245 0.33514,0.49601 0.630064,0.93839 0.294923,0.44239 0.563035,0.84456 0.281517,0.38876 0.563035,0.76411 0.375357,-0.34854 0.737308,-0.77752 0.361951,-0.44238 0.750713,-0.9652 0.388763,-0.52282 0.831148,-1.12607 0.45579,-0.61666 0.951797,-1.32716 0,0 0.06703,-0.0804 0.06703,-0.0804 0.21449,-0.16087 0.147461,-0.0804 0.388762,-0.0536 0.241301,0.0134 0.375357,0.12065 0.134056,0.10724 0.187678,0.2413 0.05362,0.12065 0.06703,0.21449 0.01341,0.0804 0.01341,0.0804 -0.05362,0.54963 -0.08043,1.27354 -0.02681,0.71049 -0.04022,1.51483 0,0.80433 0.01341,1.63548 0.01341,0.83115 0.02681,1.62208 0.02681,0.77752 0.06703,1.4344 0,0 -0.01341,0.0804 -0.01341,0.0804 -0.08043,0.18768 -0.05362,0.10724 -0.187678,0.18768 -0.120651,0.0804 -0.33514,0.0804 -0.21449,0 -0.348546,-0.0804 -0.134056,-0.0938 -0.214489,-0.20109 -0.08043,-0.10724 -0.107245,-0.18767 -0.02681,-0.0804 -0.02681,-0.0804 -0.05362,-0.52282 -0.09384,-1.17969 -0.02681,-0.65688 -0.04022,-1.36737 0,-0.7105 0.0134,-1.4344 0.01341,-0.7239 0.04022,-1.38078 -0.563035,0.80434 -1.112665,1.51484 -0.536224,0.69709 -1.085853,1.2065 -0.33514,0.30833 -0.723903,0.33514 -0.388762,0.0268 -0.79093,-0.2279 -0.294923,-0.38876 -0.630063,-0.77752 -0.321735,-0.38876 -0.656875,-0.83115 -0.33514,-0.45579 -0.683685,-0.99201 -0.01341,0.53622 -0.02681,1.05904 0,0.50941 0,1.01883 0,0.496 0,1.00542 0.0134,0.496 0.04022,1.01882 0.02681,0.50941 0.05362,1.05904 0,0 -0.01341,0.0804 -0.01341,0.0804 -0.06703,0.18768 -0.05362,0.10724 -0.187678,0.18767 -0.120651,0.0804 -0.348546,0.067 z m 10.992581,-0.0536 q -0.442385,-0.0268 -0.88477,-0.17427 -0.428979,-0.16087 -0.817742,-0.45579 -0.388762,-0.30833 -0.697091,-0.7105 0,0 -0.02681,-0.067 -0.02681,-0.067 -0.05362,-0.16087 -0.01341,-0.0938 0.01341,-0.21449 0.04022,-0.12065 0.160867,-0.22789 0.147462,-0.10725 0.281518,-0.12065 0.147462,-0.0268 0.268112,0.0134 0.12065,0.0268 0.201084,0.067 0.08043,0.0268 0.08043,0.0268 0.187678,0.17428 0.33514,0.33514 0.160867,0.14747 0.308328,0.26812 0.147462,0.12065 0.308329,0.18767 0.160867,0.067 0.361951,0.067 0.563036,-0.067 0.844553,-0.56303 0.281518,-0.49601 0.388763,-1.20651 0.02681,-0.50941 -0.01341,-1.24672 -0.02681,-0.75071 -0.09384,-1.70251 -0.05362,-0.9518 -0.107245,-2.02424 0,0 0,-0.0938 0.01341,-0.10725 0.05362,-0.2413 0.04022,-0.14747 0.160868,-0.25471 0.12065,-0.10725 0.348545,-0.12065 0.241301,0.0134 0.388763,0.12065 0.160867,0.10724 0.227895,0.2413 0.08043,0.13406 0.107245,0.2413 0.04022,0.10725 0.04022,0.10725 0.08043,1.01882 0.147462,1.84997 0.06703,0.83115 0.09384,1.50143 0.04022,0.65687 0.04022,1.15288 0.0134,0.496 -0.02681,0.84455 -0.120651,0.83115 -0.469196,1.39418 -0.33514,0.56304 -0.844553,0.85796 -0.509413,0.28152 -1.12607,0.30833 z m 6.51512,0.10724 q -0.871364,0 -1.55505,-0.53622 -0.67028,-0.53622 -1.032231,-1.47462 -0.348546,-0.95179 -0.294923,-2.1717 0.02681,-0.91158 0.281517,-1.75614 0.254707,-0.85795 0.697091,-1.52823 0.442385,-0.68369 1.032232,-1.07245 0.589846,-0.40217 1.286937,-0.40217 0.536224,0 1.072448,0.14746 0.54963,0.14746 1.045635,0.4826 0.49601,0.32174 0.87137,0.87137 0.37535,0.54963 0.56303,1.32715 0.20109,0.77753 0.16087,1.83657 -0.0268,0.85796 -0.29492,1.55505 -0.26812,0.68368 -0.6971,1.1931 -0.42898,0.50941 -0.951794,0.85795 -0.522818,0.33514 -1.085853,0.50942 -0.563035,0.16086 -1.099259,0.16086 z m -2.278952,-2.26554 -0.254707,-0.93839 q 1.273532,-0.91158 2.774959,-1.54165 1.514833,-0.64347 3.217346,-1.05904 l 0.33514,1.11266 q -1.622079,0.21449 -3.136912,0.83115 -1.514833,0.61666 -2.935826,1.59527 z m 2.506847,0.9518 q 0.45579,0 0.911581,-0.18768 0.469196,-0.20109 0.857958,-0.58985 0.402168,-0.40217 0.656872,-1.00542 0.26811,-0.60325 0.29493,-1.40759 0.0402,-0.88477 -0.16087,-1.48802 -0.18768,-0.60325 -0.536226,-0.9652 -0.348545,-0.36195 -0.79093,-0.52282 -0.428979,-0.16087 -0.88477,-0.16087 -0.469196,0 -0.871364,0.26811 -0.388762,0.26812 -0.697091,0.73731 -0.308329,0.4692 -0.509413,1.08586 -0.187678,0.61665 -0.214489,1.30034 -0.02681,0.92499 0.201084,1.59527 0.227895,0.65687 0.67028,1.00542 0.45579,0.33514 1.072448,0.33514 z m 6.340851,1.23331 q -0.16087,0 -0.32174,-0.0536 -0.16086,-0.067 -0.26811,-0.18768 -0.10724,-0.12065 -0.13405,-0.28152 -0.0134,-0.16087 0.0938,-0.34854 0.99201,-1.52824 1.63548,-2.69453 0.64347,-1.16629 0.91158,-1.95722 0.28152,-0.80433 0.17427,-1.2065 -0.13405,-0.45579 -0.41557,-0.68369 -0.26811,-0.22789 -0.64347,-0.2547 -0.42898,0.0268 -0.77752,0.20108 -0.34855,0.17427 -0.63007,0.42898 0,0 -0.067,0.0402 -0.0536,0.0268 -0.16086,0.067 -0.0938,0.0268 -0.2279,0.0134 -0.12065,-0.0268 -0.2547,-0.14746 -0.10725,-0.0938 -0.14747,-0.17427 -0.0402,-0.0804 -0.0402,-0.16087 0.0134,-0.0804 0.0402,-0.14746 0.0268,-0.067 0.067,-0.10725 0.30833,-0.33514 0.63006,-0.54963 0.33514,-0.22789 0.73731,-0.34854 0.40217,-0.12065 0.88477,-0.13406 0.64347,0.0268 1.12607,0.30833 0.4826,0.28152 0.79093,0.73731 0.32174,0.45579 0.42898,1.01882 0.10725,0.54963 -0.0268,1.09926 -0.13406,0.56304 -0.37536,1.15289 -0.2413,0.57644 -0.54963,1.16628 -0.30832,0.57644 -0.67028,1.12607 -0.34854,0.54963 -0.75071,1.07245 h 2.49344 q 0,0 0.0804,0.0268 0.0804,0.0134 0.18767,0.067 0.10725,0.0402 0.18768,0.13406 0.0938,0.0938 0.10725,0.2413 0,0.16086 -0.067,0.2547 -0.0536,0.0804 -0.12065,0.13406 -0.067,0.0402 -0.13406,0.0536 -0.0536,0.0134 -0.0536,0.0134 z"
         id="path4" /><path
         style="font-family:'Sour Gummy';-inkscape-font-specification:'Sour Gummy';text-align:center;text-anchor:middle"
         d="m 82.688345,131.50958 q -0.21449,0 -0.348546,-0.0804 -0.134056,-0.0938 -0.214489,-0.20109 -0.06703,-0.12065 -0.09384,-0.20108 -0.02681,-0.0938 -0.02681,-0.0938 -0.05362,-0.57644 -0.09384,-1.31375 -0.02681,-0.75071 -0.04022,-1.58186 0,-0.83115 0.01341,-1.6623 0.01341,-0.84455 0.05362,-1.62207 0.04022,-0.79093 0.09384,-1.4344 0,0 0.01341,-0.067 0.01341,-0.0804 0.06703,-0.17427 0.05362,-0.10725 0.174273,-0.17428 0.134056,-0.0804 0.348546,-0.0804 0.227895,0.0134 0.361951,0.0938 0.134056,0.067 0.201084,0.18768 0.08043,0.10724 0.107245,0.21449 0.02681,0.10724 0.02681,0.18768 0,0.067 0,0.067 -0.05362,0.54963 -0.08043,1.27354 -0.02681,0.71049 -0.04022,1.51483 0,0.80433 0,1.63548 0.01341,0.81774 0.02681,1.59527 0.02681,0.76412 0.06703,1.40759 0,0 -0.01341,0.0804 -0.01341,0.0804 -0.06703,0.18768 -0.05362,0.0938 -0.187678,0.17427 -0.120651,0.067 -0.348546,0.067 z m 6.474898,0.0134 q -0.201084,0.0402 -0.361952,-0.0134 -0.160867,-0.0402 -0.268112,-0.12065 -0.107244,-0.0938 -0.160867,-0.16087 -0.05362,-0.067 -0.05362,-0.067 -0.388763,-0.75071 -0.764119,-1.24672 -0.375357,-0.50941 -0.750714,-0.85796 -0.375357,-0.34854 -0.777525,-0.57644 -0.388762,-0.22789 -0.831147,-0.40216 l 0.02681,-1.35397 q 0.924987,-0.25471 1.568455,-0.68369 0.643469,-0.44238 1.059043,-0.93839 0.415573,-0.50941 0.643469,-0.99201 0.2413,-0.4826 0.321734,-0.84455 0,0 0.02681,-0.067 0.04022,-0.067 0.120651,-0.13406 0.08043,-0.0804 0.214489,-0.12065 0.134056,-0.0536 0.348546,-0.0134 0.227895,0.0402 0.33514,0.16086 0.12065,0.10725 0.147461,0.2279 0.02681,0.12065 0.02681,0.21449 0,0.0804 0,0.0804 -0.04022,0.52282 -0.254707,1.03223 -0.201084,0.50941 -0.522818,0.97861 -0.321735,0.45579 -0.737308,0.84455 -0.415574,0.37536 -0.88477,0.67028 -0.45579,0.28152 -0.924986,0.42898 0.630063,0.32174 1.179693,0.85796 0.563035,0.53622 1.00542,1.17969 0.442384,0.64347 0.723902,1.30035 0,0 0.01341,0.0804 0.0134,0.067 -0.01341,0.18768 -0.02681,0.10724 -0.134056,0.21449 -0.09384,0.0938 -0.321734,0.13405 z m -3.981464,-0.0134 q -0.227895,0 -0.361951,-0.0804 -0.134056,-0.0938 -0.214489,-0.20109 -0.06703,-0.12065 -0.09384,-0.20108 -0.02681,-0.0938 -0.02681,-0.0938 -0.05362,-0.57644 -0.09384,-1.31375 -0.02681,-0.75071 -0.04022,-1.58186 0,-0.83115 0.01341,-1.6623 0.01341,-0.84455 0.05362,-1.62207 0.04022,-0.79093 0.09384,-1.4344 0,0 0.01341,-0.0804 0.01341,-0.0804 0.06703,-0.17427 0.05362,-0.0938 0.174273,-0.16087 0.134056,-0.0804 0.348545,-0.0804 0.227896,0 0.361952,0.0804 0.134056,0.0804 0.201084,0.20109 0.08043,0.10724 0.107244,0.21449 0.02681,0.10724 0.02681,0.18768 0,0.067 0,0.067 -0.05362,0.54963 -0.08043,1.27354 -0.02681,0.71049 -0.04022,1.51483 0,0.80433 0,1.63548 0.01341,0.81774 0.02681,1.59527 0.02681,0.76412 0.06703,1.40759 0,0 -0.01341,0.0804 -0.01341,0.0804 -0.06703,0.18768 -0.05362,0.0938 -0.187679,0.17427 -0.12065,0.067 -0.33514,0.067 z m 7.118364,0.0268 q -0.563035,-0.0134 -0.88477,-0.18768 -0.308329,-0.18768 -0.428979,-0.46919 -0.04022,-1.87679 -0.05362,-3.72676 0,-1.86338 0.05362,-3.65973 0,-0.42898 0.603252,-0.57644 0.603252,-0.14746 1.608672,-0.13406 1.018825,0 1.729322,0.17428 0.710497,0.17427 1.193099,0.46919 0.482601,0.29493 0.831147,0.67028 0.348545,0.37536 0.643469,0.76412 0.750713,1.50143 0.589846,2.80177 -0.147462,1.30034 -1.059042,2.45323 -0.54963,0.61665 -1.313749,0.93839 -0.750714,0.30833 -1.662295,0.40217 -0.898175,0.0938 -1.849972,0.0804 z m 0.06703,-1.28694 q 1.193098,0.0804 2.024245,-0.0938 0.844553,-0.18768 1.353966,-0.60325 0.509413,-0.41557 0.750713,-1.03223 0.254707,-0.63006 0.308329,-1.40759 -0.06703,-1.03223 -0.415573,-1.6891 -0.33514,-0.65688 -0.924987,-1.00542 -0.576441,-0.34855 -1.353965,-0.44239 -0.777525,-0.0938 -1.729323,0 -0.08043,1.51483 -0.08043,3.08329 0.0134,1.56845 0.06703,3.19053 z m 9.722407,1.21991 q -0.50941,-0.0268 -0.92498,-0.41557 -0.40217,-0.40217 -0.73731,-1.11267 -0.33514,-0.7239 -0.603253,-1.71591 -0.268112,-1.00542 -0.509413,-2.22533 -0.2413,-1.23332 -0.469196,-2.65431 0,0 0.01341,-0.0804 0.01341,-0.0804 0.06703,-0.17428 0.05362,-0.0938 0.174273,-0.16086 0.12065,-0.0804 0.33514,-0.0938 0.214489,0 0.348545,0.0804 0.147462,0.067 0.227894,0.17427 0.0938,0.10725 0.12065,0.18768 0.0402,0.0804 0.0402,0.0804 0.16087,0.96521 0.34855,1.86338 0.18767,0.89818 0.38876,1.68911 0.21449,0.77752 0.41557,1.40759 0.20109,0.61665 0.38876,1.04563 0.18768,0.41558 0.34855,0.60325 0.20108,-0.13405 0.44239,-0.57644 0.2547,-0.44238 0.496,-1.11266 0.2413,-0.68369 0.45579,-1.48802 0.21449,-0.81774 0.37536,-1.68911 0.17427,-0.87136 0.2413,-1.71591 0,0 0.0134,-0.0804 0.0268,-0.0804 0.0938,-0.17427 0.067,-0.0938 0.20108,-0.14746 0.13406,-0.067 0.37536,-0.0268 0.26811,0.0268 0.41557,0.13405 0.14746,0.10725 0.20108,0.2413 0.0536,0.12065 0.067,0.21449 0.0134,0.0804 0.0134,0.0804 -0.12065,1.26012 -0.37536,2.43982 -0.2413,1.16628 -0.57644,2.1583 -0.32173,0.97861 -0.7239,1.71591 -0.38877,0.73731 -0.81774,1.13948 -0.42898,0.40217 -0.87137,0.38876 z"
         id="path5" /></g></g></svg>
